# Rhino

v -4 -0.8999999761581421 4
v -4 -0.699999988079071 4
v -4 -0.8999999761581421 0
v -4 -0.699999988079071 0
v -4 -0.8999999761581421 -4
v -4 -0.699999988079071 -4
v -1.332267629550188e-15 0.8999999761581421 4
v -1.332267629550188e-15 0.8999999761581421 0
v -1.332267629550188e-15 0.8999999761581421 -4
v 0 -0.8999999761581421 4
v 0 -0.8999999761581421 -4
v 4 -0.8999999761581421 4
v 4 -0.699999988079071 4
v 4 -0.8999999761581421 0
v 4 -0.699999988079071 0
v 4 -0.8999999761581421 -4
v 4 -0.699999988079071 -4
vt 0.7904409766197205 0.5049999952316284
vt 0.7781005501747131 0.5049999952316284
vt 0.7904409766197205 0.005000000353902578
vt 0.7904409766197205 0.2549999952316284
vt 0.7781005501747131 0.005000000353902578
vt 0.6793771386146545 0.2549999952316284
vt 0.6633505821228027 0.005000000353902578
vt 0.6756910085678101 0.005000000353902578
vt 0.6756910085678101 0.5049999952316284
vt 0.6633505821228027 0.5049999952316284
vt 0.6756910085678101 0.2549999952316284
vt 0.5646271109580994 0.2549999952316284
vt 0.5620516538619995 0
vt 0.5510165095329285 0
vt 0.5620516538619995 0.5
vt 0.5510165095329285 0.5
vt 0.5620516538619995 0.25
vt 0.5510165095329285 0.25
vt 0.5495516657829285 0
vt 0.5385164618492126 0
vt 0.5495516657829285 0.5
vt 0.5385164618492126 0.5
vt 0.5495516657829285 0.25
vt 0.5385164618492126 0.25
vt 0.5 0
vt 0 0
vt 0.5 0.49853515625
vt 0 0.49853515625
vt 0.5 0.249267578125
vt 0 0.249267578125
vt 0.25 0.49853515625
vt 0.25 0
vt 0.5370516180992126 0.5
vt 0.2692582309246063 0.5
vt 0.5370516180992126 0.99853515625
vt 0.2692582309246063 0.99853515625
vt 0.5370516180992126 0.749267578125
vt 0.2692582309246063 0.749267578125
vt 0.2677933871746063 0.5
vt 0 0.5
vt 0.2677933871746063 0.99853515625
vt 0 0.99853515625
vt 0 0.749267578125
vt 0.2677933871746063 0.749267578125
vn 0 -6.525503569557327e-32 1
vn 0 -6.525503569557327e-32 1
vn 0 -6.525503569557327e-32 1
vn 0 -6.525503569557327e-32 1
vn 0 -6.525503569557327e-32 1
vn 0 -6.525503569557327e-32 1
vn 0 0 -1
vn 0 0 -1
vn 0 0 -1
vn 0 0 -1
vn 0 0 -1
vn 0 0 -1
vn 1 0 0
vn 1 0 0
vn 1 0 0
vn 1 0 0
vn 1 0 0
vn 1 0 0
vn -1 0 0
vn -1 0 0
vn -1 0 0
vn -1 0 0
vn -1 0 0
vn -1 0 0
vn 0 -1 0
vn 0 -1 0
vn 0 -1 0
vn 0 -1 0
vn 0 -1 0
vn 0 -1 0
vn 0 -1 0
vn 0 -1 0
vn 0.3713906705379486 0.9284766912460327 -2.602811015321889e-16
vn 0.3713906705379486 0.9284766912460327 -2.473958775198789e-16
vn 0.3713906705379486 0.9284766912460327 -2.602811015321889e-16
vn 0.3713906705379486 0.9284766912460327 -2.473958775198789e-16
vn 0.3713906705379486 0.9284766912460327 -2.602811015321889e-16
vn 0.3713906705379486 0.9284766912460327 -2.473958775198789e-16
vn -0.3713906705379486 0.9284766912460327 -1.752387553998407e-16
vn -0.3713906705379486 0.9284766912460327 -1.881239529423712e-16
vn -0.3713906705379486 0.9284766912460327 -1.752387553998407e-16
vn -0.3713906705379486 0.9284766912460327 -1.881239529423712e-16
vn -0.3713906705379486 0.9284766912460327 -1.881239529423712e-16
vn -0.3713906705379486 0.9284766912460327 -1.752387553998407e-16
f 7/6/6 2/5/5 10/4/4
f 1/3/3 10/4/4 2/5/5
f 13/2/2 10/4/4 12/1/1
f 7/6/6 10/4/4 13/2/2
f 9/12/12 11/11/11 6/7/7
f 5/8/8 6/7/7 11/11/11
f 17/10/10 16/9/9 11/11/11
f 9/12/12 17/10/10 11/11/11
f 13/14/14 12/13/13 14/17/17 15/18/18
f 16/15/15 17/16/16 15/18/18 14/17/17
f 6/20/20 5/19/19 3/23/23 4/24/24
f 1/21/21 2/22/22 4/24/24 3/23/23
f 3/32/32 10/29/29 1/25/25
f 3/32/32 5/26/26 11/30/30
f 14/31/31 10/29/29 3/32/32
f 3/32/32 11/30/30 14/31/31
f 14/31/31 11/30/30 16/28/28
f 12/27/27 10/29/29 14/31/31
f 7/34/34 13/33/33 15/37/37 8/38/38
f 17/35/35 9/36/36 8/38/38 15/37/37
f 2/40/40 7/39/39 8/44/44 4/43/43
f 9/41/41 6/42/42 4/43/43 8/44/44
